<svg width="548" height="544" viewBox="0 0 548 544" fill="none" xmlns="http://www.w3.org/2000/svg">
<path fill-rule="evenodd" clip-rule="evenodd" d="M278.411 63.2174C291.341 58.0577 299.96 44.9111 298.739 30.3179C297.242 12.4312 281.528 -0.855308 263.641 0.641673C245.755 2.13865 232.468 17.8522 233.965 35.739C235.156 49.9642 245.338 61.2798 258.454 64.5634L271.955 225.876C267.041 227.327 262.469 229.576 258.39 232.473L137.106 111.075C140.352 104.318 141.289 96.4112 139.197 88.6027C134.551 71.2651 116.73 60.9762 99.3926 65.6218C82.055 70.2674 71.7661 88.0883 76.4117 105.426C81.0572 122.764 98.8782 133.053 116.216 128.407C118.743 127.73 121.121 126.772 123.324 125.578L244.964 247.332C242.964 250.856 241.417 254.67 240.4 258.695L64.0078 247.258C63.4579 245.129 62.6825 243.024 61.6712 240.975C53.7288 224.878 34.2415 218.268 18.1451 226.211C2.04867 234.153 -4.5614 253.641 3.38104 269.737C11.3235 285.833 30.8108 292.443 46.9072 284.501C54.4662 280.771 59.9331 274.495 62.7834 267.22L239.821 278.699C240.548 282.495 241.741 286.126 243.339 289.528L102.489 387.264C96.4154 382.872 88.8004 380.547 80.7446 381.221C62.8579 382.718 49.5714 398.432 51.0684 416.319C52.5654 434.205 68.279 447.492 86.1657 445.995C104.052 444.498 117.339 428.784 115.842 410.898C115.624 408.29 115.103 405.78 114.318 403.4L255.589 305.371C257.658 307.093 259.88 308.637 262.231 309.979L217.044 478.939C214.849 479.063 212.634 479.412 210.426 480.004C193.088 484.65 182.799 502.471 187.445 519.808C192.091 537.146 209.912 547.435 227.249 542.789C244.587 538.143 254.876 520.323 250.23 502.985C248.049 494.843 242.961 488.256 236.383 484.039L281.362 315.858C282.562 315.952 283.776 316 285 316C287.168 316 289.3 315.85 291.388 315.56L364.123 462.968C353.981 472.504 350.775 487.893 357.255 501.026C365.197 517.122 384.684 523.732 400.781 515.79C416.877 507.847 423.487 488.36 415.545 472.264C409.228 459.462 395.61 452.661 382.202 454.408L310.201 308.489C314.036 305.973 317.472 302.899 320.395 299.382L478.7 373.838C478.432 376.02 478.383 378.262 478.574 380.54C480.071 398.426 495.784 411.713 513.671 410.216C531.558 408.719 544.844 393.005 543.347 375.119C541.85 357.232 526.137 343.945 508.25 345.442C499.85 346.145 492.465 349.984 487.149 355.71L329.531 281.578C330.49 277.879 331 273.999 331 270C331 269.531 330.993 269.064 330.979 268.599L487.217 226.735C494.588 238.544 509.055 244.695 523.2 240.905C540.538 236.259 550.827 218.438 546.181 201.101C541.536 183.763 523.715 173.474 506.377 178.12C492.588 181.814 483.258 193.842 482.353 207.333L326.047 249.215C323.545 244.284 320.181 239.864 316.152 236.154L409.175 97.0098C416.435 98.8736 424.373 98.2483 431.622 94.6712C447.719 86.7288 454.329 67.2415 446.386 51.1451C438.444 35.0487 418.956 28.4386 402.86 36.3811C386.764 44.3235 380.154 63.8108 388.096 79.9072C389.254 82.2537 390.657 84.3986 392.259 86.3262L298.81 226.109C296.579 225.408 294.274 224.872 291.911 224.516L278.411 63.2174Z" fill="black"/>
</svg>
